<svg xmlns="http://www.w3.org/2000/svg" width="242" height="45" viewBox="0 0 242 45">
  <defs>
    <style>
      .cls-1 {
        fill: #d89c33;
      }

      .cls-2 {
        fill: #333;
      }

      .cls-2, .cls-3 {
        fill-rule: evenodd;
      }

      .cls-3 {
        fill: #fff;
      }
    </style>
  </defs>
  <circle id="Эллипс_1" data-name="Эллипс 1" class="cls-1" cx="22.563" cy="22.625" r="22.563"/>
  <path id="webpack_test" class="cls-2" d="M61.095,30.989h2.187l2.212-7.651,2.224,7.651h2.187l3.256-13.956H70.9L68.476,28.31l-2.013-7.2H64.512l-1.988,7.2L60.1,17.033H57.839Zm20.479,0.361a10.339,10.339,0,0,0,2.373-.262,16.206,16.206,0,0,0,2.51-.81V28a14.616,14.616,0,0,1-2.547,1.059,7.866,7.866,0,0,1-2.3.349,4.339,4.339,0,0,1-3.33-1.246,4.9,4.9,0,0,1-1.193-3.526V24.559h9.9V23.438a7.4,7.4,0,0,0-1.529-4.947A5.285,5.285,0,0,0,81.225,16.7a6.169,6.169,0,0,0-4.747,1.994A7.783,7.783,0,0,0,74.7,24.036a7.63,7.63,0,0,0,1.827,5.371A6.607,6.607,0,0,0,81.573,31.351Zm-4.4-8.573a5.016,5.016,0,0,1,1.267-3.041,3.618,3.618,0,0,1,2.734-1.1,3.258,3.258,0,0,1,2.585,1.047,4.835,4.835,0,0,1,.944,3.078Zm19.708,8.573a4.661,4.661,0,0,0,3.976-1.969A8.952,8.952,0,0,0,102.3,24a8.978,8.978,0,0,0-1.441-5.383A4.716,4.716,0,0,0,96.932,16.7a4.489,4.489,0,0,0-2.249.548,3.694,3.694,0,0,0-1.516,1.57V11.6H90.881V30.989h2.063l0.224-1.757A4.035,4.035,0,0,0,94.7,30.8,4.17,4.17,0,0,0,96.883,31.351ZM96.56,29.407a2.81,2.81,0,0,1-2.535-1.371,7.608,7.608,0,0,1-.857-4.012A7.658,7.658,0,0,1,94.025,20a2.793,2.793,0,0,1,2.522-1.358A2.739,2.739,0,0,1,99.045,20a7.792,7.792,0,0,1,.845,4.025,7.791,7.791,0,0,1-.845,4.025A2.72,2.72,0,0,1,96.56,29.407Zm9.606,6.891h2.3V29.232a3.886,3.886,0,0,0,1.5,1.57,4.183,4.183,0,0,0,2.212.548,4.643,4.643,0,0,0,3.952-1.944,8.82,8.82,0,0,0,1.441-5.358,8.993,8.993,0,0,0-1.429-5.4,4.65,4.65,0,0,0-3.951-1.956,4.362,4.362,0,0,0-2.2.536,3.99,3.99,0,0,0-1.528,1.583l-0.224-1.782h-2.075V36.3Zm5.679-6.891a2.8,2.8,0,0,1-2.523-1.371,7.615,7.615,0,0,1-.857-4.012A7.664,7.664,0,0,1,109.321,20a2.794,2.794,0,0,1,2.523-1.358,2.741,2.741,0,0,1,2.5,1.358,7.775,7.775,0,0,1,.832,4.025,7.775,7.775,0,0,1-.832,4.025A2.741,2.741,0,0,1,111.844,29.407ZM125.5,31.351a5.718,5.718,0,0,0,2.685-.6,5.231,5.231,0,0,0,2.037-1.882c0.038,0.262.112,0.673,0.2,1.034a7.791,7.791,0,0,0,.336,1.084h2.3a8.75,8.75,0,0,1-.336-1.134,14.585,14.585,0,0,1-.286-1.682c-0.087-.635-0.074-1.333-0.112-2.293V23.027a13.737,13.737,0,0,0-.2-2.754,4.216,4.216,0,0,0-.671-1.545,4.907,4.907,0,0,0-1.964-1.508,7.411,7.411,0,0,0-2.945-.523,10.843,10.843,0,0,0-2.274.237,18.248,18.248,0,0,0-2.435.735v2.293a9.72,9.72,0,0,1,2.323-.984,8.74,8.74,0,0,1,2.374-.337,3.908,3.908,0,0,1,2.647.748,3.221,3.221,0,0,1,.845,2.43v0.361h-3.07a7.291,7.291,0,0,0-4.573,1.209,4.207,4.207,0,0,0-1.565,3.526,4.192,4.192,0,0,0,1.267,3.227A4.7,4.7,0,0,0,125.5,31.351Zm0.473-1.919a3.012,3.012,0,0,1-2.113-.7,2.518,2.518,0,0,1-.758-1.944,2.367,2.367,0,0,1,1.019-2.118,5.368,5.368,0,0,1,3.007-.7h2.9v0.511a5.559,5.559,0,0,1-1.094,3.626A3.6,3.6,0,0,1,125.973,29.432Zm17.322,1.919a7.7,7.7,0,0,0,2.063-.262,8.5,8.5,0,0,0,1.889-.81V27.9a4.967,4.967,0,0,1-1.753,1.134,5.44,5.44,0,0,1-2.087.374A4.135,4.135,0,0,1,140.052,28a6.1,6.1,0,0,1-1.156-3.988,6.1,6.1,0,0,1,1.156-3.975,4.05,4.05,0,0,1,3.318-1.4,5.728,5.728,0,0,1,2.062.361,6.219,6.219,0,0,1,1.815,1.171v-2.4a8.977,8.977,0,0,0-1.927-.81,6.847,6.847,0,0,0-2.013-.262,6.589,6.589,0,0,0-4.995,1.931,7.609,7.609,0,0,0-1.827,5.4,7.619,7.619,0,0,0,1.815,5.383A6.585,6.585,0,0,0,143.295,31.351Zm9.282-.361h2.361V25.394l1.7-1.608,5.144,7.2h2.8l-6.337-8.7,5.48-5.258H160.94l-6,5.794V11.6h-2.361V30.989Zm13.682,3.863h12.973v-1.5H166.259v1.5Zm26.977-3.813V29.207h-2.572a2.712,2.712,0,0,1-2.038-.611,3.15,3.15,0,0,1-.584-2.156V18.815h5.194V17.033h-5.194V12.385l-2.286,1v3.651H182.04v1.782h3.716v7.626A4.845,4.845,0,0,0,186.812,30a5.157,5.157,0,0,0,3.629,1.034h2.795Zm10.911,0.311a10.333,10.333,0,0,0,2.373-.262,16.183,16.183,0,0,0,2.51-.81V28a14.581,14.581,0,0,1-2.547,1.059,7.868,7.868,0,0,1-2.3.349,4.338,4.338,0,0,1-3.33-1.246,4.9,4.9,0,0,1-1.193-3.526V24.559h9.9V23.438a7.4,7.4,0,0,0-1.529-4.947A5.285,5.285,0,0,0,203.8,16.7a6.167,6.167,0,0,0-4.747,1.994,7.782,7.782,0,0,0-1.777,5.346,7.63,7.63,0,0,0,1.827,5.371A6.606,6.606,0,0,0,204.147,31.351Zm-4.4-8.573a5.019,5.019,0,0,1,1.267-3.041,3.62,3.62,0,0,1,2.734-1.1,3.259,3.259,0,0,1,2.585,1.047,4.832,4.832,0,0,1,.944,3.078Zm18.639,8.573a6.317,6.317,0,0,0,4-1.171,3.847,3.847,0,0,0,1.466-3.215,3.607,3.607,0,0,0-.87-2.542,4.429,4.429,0,0,0-2.585-1.3l-0.919-.175a7.463,7.463,0,0,1-2.846-.9,1.686,1.686,0,0,1-.571-1.383,1.746,1.746,0,0,1,.77-1.558,4.234,4.234,0,0,1,2.262-.5,7.394,7.394,0,0,1,2.075.287,8.512,8.512,0,0,1,1.976.86V17.519a12.02,12.02,0,0,0-2.026-.623A11.052,11.052,0,0,0,219,16.7a6.064,6.064,0,0,0-3.889,1.084,3.725,3.725,0,0,0-1.355,3.09,3.39,3.39,0,0,0,.907,2.5,5.507,5.507,0,0,0,2.883,1.308l0.858,0.174,0.1,0.025c2.1,0.436,3.045,1.121,3.045,2.28a2.015,2.015,0,0,1-.833,1.645,3.9,3.9,0,0,1-2.349.623,8,8,0,0,1-2.211-.336,12.53,12.53,0,0,1-2.448-.984v2.368c0.882,0.287,1.8.523,2.448,0.66A12.137,12.137,0,0,0,218.387,31.351Zm20.814-.311V29.207h-2.572a2.715,2.715,0,0,1-2.038-.611,3.15,3.15,0,0,1-.584-2.156V18.815H239.2V17.033h-5.194V12.385l-2.286,1v3.651h-3.716v1.782h3.716v7.626A4.845,4.845,0,0,0,232.777,30a5.157,5.157,0,0,0,3.629,1.034H239.2Z"/>
  <path id="_" data-name="#" class="cls-3" d="M15.82,30.989H17.8l1.3-5.159h3.057l-1.3,5.159h1.988l1.292-5.159h3.591V23.924H24.618l1.044-4.162h3.492V17.843H26.121l1.3-5.171H25.438l-1.3,5.171H21.089l1.292-5.171H20.393L19.1,17.843H15.335v1.919h3.305L17.6,23.924H13.906V25.83h3.206Zm3.765-7.065,1.044-4.162h3.044l-1.031,4.162H19.585Z"/>
</svg>
